# xmcd CD database file
#
# Track frame offsets:
#	150
#	19593
#	36796
#	50240
#	65018
#	79939
#	96129
#	113372
#	134939
#	151859
#	167318
#	182471
#	203891
#	217712
#	233203
#	249290
#	263056
#	282332
#	297403
#	309375
#
# Disc length: 4355 seconds
#
# Revision: 0
# Processed by: cddbd v1.4b41PL3 Copyright (c) Steve Scherf et al.
# Submitted via: Feurio! 1.61 - http://www.feurio.com
#
DISCID=13110114
DTITLE=Kenny Rogers - Classic Love Songs
DYEAR=1900
DGENRE=
TTITLE0=She Believes In Me
TTITLE1=Lady
TTITLE2=I Will Always Love You
TTITLE3=Crazy
TTITLE4=Misty
TTITLE5=The Wind Beneath My Wings
TTITLE6=Endless LOve
TTITLE7=Have I Told You Lately That I Love You
TTITLE8=When A Man Loves A Woman
TTITLE9=When I Fall In Love
TTITLE10=Unforgettable
TTITLE11=Always And Forever
TTITLE12=You Send Me
TTITLE13=Unchained Melody
TTITLE14=Evergreen
TTITLE15=Love Me Tender
TTITLE16=I Only Have Eyes For You
TTITLE17=I Can't Help Falling In Love With You
TTITLE18=It Had To Be You
TTITLE19=I Swear
EXTD=
EXTT0=
EXTT1=
EXTT2=
EXTT3=
EXTT4=
EXTT5=
EXTT6=
EXTT7=
EXTT8=
EXTT9=
EXTT10=
EXTT11=
EXTT12=
EXTT13=
EXTT14=
EXTT15=
EXTT16=
EXTT17=
EXTT18=
EXTT19=
PLAYORDER=
